<svg xmlns="http://www.w3.org/2000/svg" viewBox="0 0 10.65 10.65"><path d="M 5.4249975,10.649995 A 0.22499997,0.22499997 0 0 0 5.6499967,10.424996 V 6.3249883 A 0.22499997,0.22499997 0 0 1 5.874996,6.0999891 H 8.0028761 A 0.89999989,0.89999989 0 0 0 8.3472995,6.0314661 L 8.4943189,5.9705911 A 0.89999989,0.89999989 0 0 0 8.7862907,5.7755127 L 10.125537,4.4362664 a 0.89999989,0.89999989 0 0 0 0.195078,-0.2919719 l 0.06087,-0.1470194 a 0.89999989,0.89999989 0 0 0 0.06852,-0.3444232 V 0.9479011 A 0.44999994,0.44999994 0 0 0 10.318186,0.629729 L 9.8202843,0.131775 A 0.44999994,0.44999994 0 0 0 9.5021126,0 H 0.42499332 A 0.22499997,0.22499997 0 0 0 0.19999433,0.225 V 1.0749736 A 0.22499997,0.22499997 0 0 0 0.42499332,1.2999725 H 4.1250254 a 0.22499997,0.22499997 0 0 1 0.2249992,0.2249993 v 8.9000242 a 0.22499997,0.22499997 0 0 0 0.224999,0.224999 z M 7.5505007,4.800017 H 5.874996 A 0.22499997,0.22499997 0 0 1 5.6499967,4.5750177 V 1.5249718 A 0.22499997,0.22499997 0 0 1 5.874996,1.2999725 H 8.9249902 A 0.22499997,0.22499997 0 0 1 9.1499894,1.5249718 V 3.2004765 A 0.89999989,0.89999989 0 0 1 8.886388,3.8368716 L 8.1868959,4.5364155 A 0.89999989,0.89999989 0 0 1 7.5505007,4.800017 Z"/></svg>